<svg enable-background="new 0 0 24 24" height="512" viewBox="0 0 24 24" width="512" xmlns="http://www.w3.org/2000/svg"><circle cx="10.937" cy="20" fill="#ffa000" r="3.296"/><path d="m19.319 17.455c-1.351-1.174-2.126-2.891-2.126-4.71v-2.562c0-3.548-2.807-6.434-6.256-6.434s-6.256 2.886-6.256 6.434v2.562c0 1.819-.775 3.536-2.134 4.717-.348.307-.547.753-.547 1.223 0 .887.702 1.608 1.564 1.608h14.747c.862 0 1.564-.722 1.564-1.608 0-.47-.2-.916-.556-1.23z" fill="#ffc107"/><circle cx="18" cy="5" fill="#f44336" r="5"/><path d="m11 24c-2.067 0-3.75-1.682-3.75-3.75 0-.414.336-.75.75-.75s.75.336.75.75c0 1.241 1.01 2.25 2.25 2.25s2.25-1.009 2.25-2.25c0-.414.336-.75.75-.75s.75.336.75.75c0 2.068-1.683 3.75-3.75 3.75z"/><path d="m19.25 21h-16.5c-.965 0-1.75-.785-1.75-1.75 0-.512.223-.997.612-1.33.025-.022.052-.042.08-.06 1.468-1.281 2.308-3.124 2.308-5.07v-2.79c0-3.86 3.141-7 7-7 .16 0 .333.003.493.03.409.068.685.455.617.863-.068.409-.463.682-.863.616-.08-.012-.168-.01-.247-.009-3.032 0-5.5 2.467-5.5 5.5v2.79c0 2.416-1.059 4.702-2.903 6.271-.015.012-.028.023-.044.034-.027.034-.053.086-.053.155 0 .136.114.25.25.25h16.5c.136 0 .25-.114.25-.25 0-.07-.026-.121-.054-.155-.015-.011-.028-.022-.043-.034-1.845-1.57-2.903-3.855-2.903-6.271v-1.09c0-.414.336-.75.75-.75s.75.336.75.75v1.09c0 1.947.841 3.791 2.311 5.073.027.018.053.037.077.058.389.332.612.817.612 1.329 0 .965-.785 1.75-1.75 1.75z"/><path d="m18 10c-2.757 0-5-2.243-5-5s2.243-5 5-5 5 2.243 5 5-2.243 5-5 5zm0-8.5c-1.93 0-3.5 1.57-3.5 3.5s1.57 3.5 3.5 3.5 3.5-1.57 3.5-3.5-1.57-3.5-3.5-3.5z"/></svg>